# xmcd
#
# Track frame offsets:
#   150
#   30386
#   44462
#   59378
#   71368
#   83274
#   96239
#   107020
#   116669
#   130832
#   143881
#   156763
#   170146
#   181384
#   194405
#   204779
#   225546
#   237010
#   249805
#   261154
#   277101
#   298377
#   317625
#   328936
#   344580
#
# Disc length: 4760 seconds
#
# Revision: 0
# Processed by: cddbd v1.5.2PL0 Copyright (c) Steve Scherf et al.
# Submitted via: Precision_Digital_Audio_Extractor 1.60.0
#
DISCID=6e129619
DTITLE=Bob Marley - Music
DYEAR=1900
DGENRE=Alternative
TTITLE0=Music
TTITLE1=Stir It Up
TTITLE2=Rebel
TTITLE3=Hop
TTITLE4=Almighty
TTITLE5=Rock
TTITLE6=Herbsman
TTITLE7=Alone
TTITLE8=soul shakedown party
TTITLE9=lively up yourself
TTITLE10=Wings of a dove
TTITLE11=Do you remember
TTITLE12=Kaya
TTITLE13=Go Tell it on the Mountain
TTITLE14=Sun is Shining
TTITLE15=Don't Rock the Boat
TTITLE16=Stone
TTITLE17=High
TTITLE18=Satisfy My Soul Jah Jah
TTITLE19=Time
TTITLE20=I Shot The Sheriff
TTITLE21=Burnin And Lootin
TTITLE22=Bend Down Low
TTITLE23=Mood
TTITLE24=Time
EXTD=
EXTT0=
EXTT1=
EXTT2=
EXTT3=
EXTT4=
EXTT5=
EXTT6=
EXTT7=
EXTT8=
EXTT9=
EXTT10=
EXTT11=
EXTT12=
EXTT13=
EXTT14=
EXTT15=
EXTT16=
EXTT17=
EXTT18=
EXTT19=
EXTT20=
EXTT21=
EXTT22=
EXTT23=
EXTT24=
PLAYORDER=
